<?xml version="1.0" encoding="utf-8"?>
<svg xmlns="http://www.w3.org/2000/svg" xmlns:xlink="http://www.w3.org/1999/xlink" width="195.84" height="168.84" viewBox="100.16 99.16 195.84 168.84" version="1.1">
  <g id="surface1">
    <path style=" stroke:none;fill-rule:nonzero;fill:rgb(3.529412%,59.215686%,61.176471%);fill-opacity:1;" d="M 232.035156 131.378906 C 239.226562 133.179688 242.710938 136.675781 242.253906 145.179688 C 241.351562 161.964844 241.988281 178.835938 241.988281 197.46875 C 227.882812 191.882812 214.871094 186.734375 201.125 180.574219 C 200.394531 176.644531 200.394531 173.726562 201.214844 170.65625 C 219.917969 169.71875 225.609375 162.949219 224.09375 143.917969 C 226.917969 139.296875 229.476562 135.335938 232.035156 131.378906 Z M 232.035156 131.378906 " />
    <path style=" stroke:none;fill-rule:nonzero;fill:rgb(57.254902%,91.372549%,59.215686%);fill-opacity:1;" d="M 162.246094 163.617188 C 162.410156 154.417969 159.421875 143.210938 163.632812 136.585938 C 167.777344 130.070312 179.175781 128.085938 187.496094 124.34375 C 191.667969 122.46875 196.078125 121.113281 201.371094 120.492188 C 202.40625 135.445312 202.457031 149.421875 201.746094 163.546875 C 188.085938 157.605469 175.183594 151.855469 162.246094 163.617188 Z M 162.246094 163.617188 " />
    <path style=" stroke:none;fill-rule:nonzero;fill:rgb(2.745098%,79.607843%,69.803922%);fill-opacity:1;" d="M 202.132812 170.460938 C 202.132812 173.378906 202.132812 176.296875 202.160156 179.929688 C 189.5 186.007812 176.816406 191.367188 162.339844 197.484375 C 162.339844 188.640625 162.339844 181.542969 162.953125 173.191406 C 174.390625 159.851562 177.570312 159.207031 192.316406 166.035156 C 195.570312 167.546875 198.859375 168.988281 202.132812 170.460938 Z M 202.132812 170.460938 " />
    <path style=" stroke:none;fill-rule:nonzero;fill:rgb(2.745098%,79.607843%,69.803922%);fill-opacity:1;" d="M 202.503906 163.402344 C 202.457031 149.421875 202.40625 135.445312 202.160156 120.496094 C 205.792969 120.425781 209.625 121.328125 214.085938 123.210938 C 217.265625 130.507812 219.820312 136.820312 222.25 144.003906 C 221.527344 162.136719 215.242188 168.070312 202.503906 163.402344 Z M 202.503906 163.402344 " />
    <path style=" stroke:none;fill-rule:nonzero;fill:rgb(61.960784%,92.156863%,62.352941%);fill-opacity:1;" d="M 160.289062 239.328125 C 156.808594 235.324219 154.011719 231.433594 149.5625 225.246094 C 149.5625 232.910156 149.5625 238.140625 149.5625 246.4375 C 146.355469 242.691406 144.410156 241.480469 144.355469 240.1875 C 144.039062 232.550781 144.011719 224.890625 144.246094 217.246094 C 144.296875 215.613281 145.90625 212.636719 146.660156 212.679688 C 148.621094 212.792969 151.242188 213.734375 152.28125 215.25 C 155.398438 219.78125 157.882812 224.746094 161.269531 230.6875 C 164.242188 224.664062 166.277344 219.792969 169.027344 215.363281 C 170.003906 213.792969 172.855469 212.363281 174.589844 212.621094 C 175.902344 212.816406 177.695312 215.78125 177.726562 217.539062 C 177.863281 226.273438 177.484375 235.011719 177.289062 243.746094 C 175.851562 243.726562 174.410156 243.703125 172.972656 243.679688 C 172.464844 238.421875 171.957031 233.164062 171.378906 227.152344 C 167.753906 231.429688 164.363281 235.4375 160.289062 239.328125 Z M 160.289062 239.328125 " />
    <path style=" stroke:none;fill-rule:nonzero;fill:rgb(61.960784%,92.156863%,62.352941%);fill-opacity:1;" d="M 134.902344 212.136719 C 136.015625 213.929688 136.285156 215.703125 136.554688 217.472656 C 134.234375 217.578125 131.789062 217.265625 129.640625 217.929688 C 128.171875 218.382812 127.125 220.199219 125.890625 221.40625 C 127.007812 222.417969 127.976562 223.957031 129.277344 224.335938 C 132.078125 225.148438 135.054688 225.367188 137.957031 225.828125 C 137.945312 226.816406 137.929688 227.804688 137.917969 228.792969 C 135.632812 229.226562 133.1875 229.292969 131.105469 230.199219 C 129.09375 231.078125 127.453125 232.816406 125.652344 234.179688 C 127.488281 235.550781 129.144531 237.4375 131.210938 238.167969 C 133.734375 239.0625 136.601562 238.992188 139.320312 239.339844 C 139.300781 240.3125 139.28125 241.289062 139.261719 242.261719 C 132.734375 242.261719 126.203125 242.261719 118.949219 242.261719 C 118.949219 232.929688 118.949219 223.167969 118.949219 212.113281 C 124.332031 212.113281 129.199219 212.113281 134.902344 212.136719 Z M 134.902344 212.136719 " />
    <path style=" stroke:none;fill-rule:nonzero;fill:rgb(84.705882%,94.117647%,95.686275%);fill-opacity:1;" d="M 201.746094 163.546875 C 215.242188 168.070312 221.527344 162.136719 222.777344 144.214844 C 224.140625 143.777344 224.851562 144.003906 225.566406 144.230469 C 227.347656 162.601562 221.65625 169.371094 202.953125 170.308594 C 198.859375 168.988281 195.570312 167.546875 192.316406 166.035156 C 177.570312 159.207031 174.390625 159.851562 162.980469 172.3125 C 162.289062 170.269531 162.191406 167.851562 162.167969 164.523438 C 175.183594 151.855469 188.085938 157.605469 201.746094 163.546875 Z M 201.746094 163.546875 " />
    <path style=" stroke:none;fill-rule:nonzero;fill:rgb(61.960784%,92.156863%,62.352941%);fill-opacity:1;" d="M 243.378906 237.667969 C 242.277344 240.203125 241.183594 241.921875 240.089844 243.644531 C 238.847656 242.066406 237.234375 240.644531 236.480469 238.859375 C 235.882812 237.445312 236.832031 235.363281 236.210938 233.972656 C 235.042969 231.355469 233.234375 229.023438 231.691406 226.574219 C 230.355469 228.925781 228.839844 231.199219 227.765625 233.667969 C 227.277344 234.789062 228.046875 236.445312 227.578125 237.585938 C 226.707031 239.714844 225.34375 241.640625 224.183594 243.648438 C 222.902344 241.761719 220.714844 239.964844 220.515625 237.96875 C 219.996094 232.746094 220.339844 227.4375 220.339844 222.253906 C 241.378906 220.304688 242.824219 221.253906 243.378906 237.667969 Z M 243.378906 237.667969 " />
    <path style=" stroke:none;fill-rule:nonzero;fill:rgb(94.901961%,47.058824%,41.176471%);fill-opacity:1;" d="M 225.832031 143.570312 C 224.851562 144.003906 224.140625 143.777344 222.902344 143.339844 C 219.820312 136.820312 217.265625 130.507812 214.753906 123.523438 C 217.785156 118.140625 220.734375 114.816406 227.574219 117.136719 C 234.496094 119.480469 234.445312 124.054688 233.902344 130.261719 C 231.214844 134.988281 228.65625 138.949219 225.832031 143.570312 Z M 225.832031 143.570312 " />
    <path style=" stroke:none;fill-rule:nonzero;fill:rgb(61.960784%,92.156863%,62.352941%);fill-opacity:1;" d="M 200.957031 212.132812 C 202.78125 213.613281 203.75 215.070312 204.71875 216.53125 C 193.488281 218.574219 198.382812 227.464844 197.425781 233.835938 C 197.179688 235.460938 197.816406 237.332031 197.238281 238.757812 C 196.507812 240.5625 194.941406 242.027344 193.738281 243.640625 C 192.539062 242.03125 190.414062 240.480469 190.300781 238.800781 C 189.886719 232.539062 190.136719 226.234375 190.136719 219.667969 C 186.917969 218.152344 183.949219 216.75 180.980469 215.351562 C 181.089844 214.269531 181.203125 213.191406 181.316406 212.109375 C 187.578125 212.109375 193.839844 212.109375 200.957031 212.132812 Z M 200.957031 212.132812 " />
    <path style=" stroke:none;fill-rule:nonzero;fill:rgb(61.960784%,92.156863%,62.352941%);fill-opacity:1;" d="M 281.511719 224.472656 C 286.820312 231.417969 286.667969 238.226562 279.792969 241.921875 C 276.195312 243.851562 268.035156 243.160156 265.921875 240.492188 C 263.300781 237.191406 262.921875 229.644531 264.960938 225.664062 C 268.410156 218.929688 275.054688 219.457031 281.511719 224.472656 M 268.289062 233.144531 C 270.683594 234.707031 273.078125 236.265625 275.46875 237.824219 C 276.386719 236.214844 278.253906 234.433594 278.003906 233.035156 C 277.59375 230.746094 275.800781 228.707031 274.589844 226.5625 C 272.53125 228.246094 270.46875 229.933594 268.289062 233.144531 Z M 268.289062 233.144531 " />
    <path style=" stroke:none;fill-rule:nonzero;fill:rgb(61.960784%,92.156863%,62.352941%);fill-opacity:1;" d="M 258.148438 227.121094 C 256.808594 231.683594 256.210938 235.796875 255.226562 239.8125 C 254.886719 241.203125 253.785156 243.089844 252.660156 243.402344 C 251.597656 243.699219 248.898438 242.238281 248.882812 241.511719 C 248.722656 233.261719 248.367188 224.925781 249.421875 216.792969 C 249.710938 214.546875 254.503906 212.886719 258.015625 210.402344 C 258.332031 217.492188 258.535156 222.058594 258.148438 227.121094 Z M 258.148438 227.121094 " />
    <path style=" stroke:none;fill-rule:nonzero;fill:rgb(61.960784%,92.156863%,62.352941%);fill-opacity:1;" d="M 208.609375 231.710938 C 208.617188 226.503906 208.222656 222.164062 208.796875 217.957031 C 209.070312 215.960938 211.191406 214.21875 212.472656 212.359375 C 213.613281 214.359375 215.585938 216.296875 215.730469 218.363281 C 216.164062 224.597656 216.226562 230.910156 215.710938 237.132812 C 215.523438 239.386719 213.285156 241.472656 211.984375 243.636719 C 210.863281 241.617188 209.460938 239.695312 208.71875 237.546875 C 208.207031 236.070312 208.613281 234.28125 208.609375 231.710938 Z M 208.609375 231.710938 " />
    <path style=" stroke:none;fill-rule:nonzero;fill:rgb(100%,100%,100%);fill-opacity:1;" d="M 268.347656 232.382812 C 270.46875 229.933594 272.53125 228.246094 274.589844 226.5625 C 275.800781 228.707031 277.59375 230.746094 278.003906 233.035156 C 278.253906 234.433594 276.386719 236.214844 275.46875 237.824219 C 273.078125 236.265625 270.683594 234.707031 268.347656 232.382812 Z M 268.347656 232.382812 " />
  </g>
</svg>